<?xml version="1.0" encoding="UTF-8" standalone="no"?>
<svg width="800" height="600" viewBox="0 0 800 600" xmlns="http://www.w3.org/2000/svg">
  <!-- Title Bar -->
  <rect x="50" y="50" width="700" height="40" fill="#4B6BF5" stroke="#000" stroke-width="2"/>
  <text x="400" y="75" font-family="Arial" font-size="20" text-anchor="middle" fill="white">Rustored - PostgreSQL Database Management Tool</text>
  
  <!-- Top Row - S3 Settings -->
  <rect x="50" y="100" width="230" height="250" fill="#E6F3FF" stroke="#000" stroke-width="2"/>
  <text x="165" y="125" font-family="Arial" font-size="16" text-anchor="middle" font-weight="bold">S3 Settings</text>
  <rect x="70" y="140" width="190" height="30" fill="white" stroke="#000" stroke-width="1"/>
  <text x="80" y="160" font-family="Arial" font-size="14">Bucket:</text>
  <rect x="70" y="180" width="190" height="30" fill="white" stroke="#000" stroke-width="1"/>
  <text x="80" y="200" font-family="Arial" font-size="14">Region:</text>
  <rect x="70" y="220" width="190" height="30" fill="white" stroke="#000" stroke-width="1"/>
  <text x="80" y="240" font-family="Arial" font-size="14">Prefix:</text>
  <rect x="70" y="260" width="190" height="30" fill="white" stroke="#000" stroke-width="1"/>
  <text x="80" y="280" font-family="Arial" font-size="14">Endpoint URL:</text>
  <rect x="70" y="300" width="190" height="30" fill="white" stroke="#000" stroke-width="1"/>
  <text x="80" y="320" font-family="Arial" font-size="14">Access Key ID:</text>
  
  <!-- Top Row - Restore Target Selection -->
  <rect x="290" y="100" width="230" height="250" fill="#FFE6E6" stroke="#000" stroke-width="2"/>
  <text x="405" y="125" font-family="Arial" font-size="16" text-anchor="middle" font-weight="bold">Restore Target</text>
  <rect x="310" y="140" width="190" height="40" fill="#FFB6B6" stroke="#000" stroke-width="1"/>
  <text x="320" y="165" font-family="Arial" font-size="14">1. PostgreSQL</text>
  <rect x="310" y="190" width="190" height="40" fill="white" stroke="#000" stroke-width="1"/>
  <text x="320" y="215" font-family="Arial" font-size="14">2. Elasticsearch</text>
  <rect x="310" y="240" width="190" height="40" fill="white" stroke="#000" stroke-width="1"/>
  <text x="320" y="265" font-family="Arial" font-size="14">3. Qdrant</text>
  
  <!-- Top Row - Target-Specific Settings -->
  <rect x="530" y="100" width="220" height="250" fill="#E6FFE6" stroke="#000" stroke-width="2"/>
  <text x="640" y="125" font-family="Arial" font-size="16" text-anchor="middle" font-weight="bold">PostgreSQL Settings</text>
  <rect x="550" y="140" width="180" height="30" fill="white" stroke="#000" stroke-width="1"/>
  <text x="560" y="160" font-family="Arial" font-size="14">Host:</text>
  <rect x="550" y="180" width="180" height="30" fill="white" stroke="#000" stroke-width="1"/>
  <text x="560" y="200" font-family="Arial" font-size="14">Port:</text>
  <rect x="550" y="220" width="180" height="30" fill="white" stroke="#000" stroke-width="1"/>
  <text x="560" y="240" font-family="Arial" font-size="14">Username:</text>
  <rect x="550" y="260" width="180" height="30" fill="white" stroke="#000" stroke-width="1"/>
  <text x="560" y="280" font-family="Arial" font-size="14">Password:</text>
  <rect x="550" y="300" width="180" height="30" fill="white" stroke="#000" stroke-width="1"/>
  <text x="560" y="320" font-family="Arial" font-size="14">Database:</text>
  
  <!-- Bottom Row - Snapshot Browser -->
  <rect x="50" y="360" width="700" height="190" fill="#F0F0F0" stroke="#000" stroke-width="2"/>
  <text x="400" y="385" font-family="Arial" font-size="16" text-anchor="middle" font-weight="bold">Snapshot Browser</text>
  
  <!-- Table Headers -->
  <rect x="70" y="400" width="660" height="30" fill="#D0D0D0" stroke="#000" stroke-width="1"/>
  <text x="120" y="420" font-family="Arial" font-size="14" font-weight="bold">S3 Path</text>
  <text x="350" y="420" font-family="Arial" font-size="14" font-weight="bold">Size</text>
  <text x="500" y="420" font-family="Arial" font-size="14" font-weight="bold">Last Modified</text>
  <text x="650" y="420" font-family="Arial" font-size="14" font-weight="bold">Type</text>
  
  <!-- Table Rows -->
  <rect x="70" y="430" width="660" height="30" fill="white" stroke="#000" stroke-width="1"/>
  <text x="120" y="450" font-family="Arial" font-size="14">backups/postgres/db1.dump</text>
  <text x="350" y="450" font-family="Arial" font-size="14">15.2 MB</text>
  <text x="500" y="450" font-family="Arial" font-size="14">2025-04-15 10:30</text>
  <text x="650" y="450" font-family="Arial" font-size="14">PostgreSQL</text>
  
  <rect x="70" y="460" width="660" height="30" fill="#E6F3FF" stroke="#000" stroke-width="1"/>
  <text x="120" y="480" font-family="Arial" font-size="14">backups/postgres/db2.dump</text>
  <text x="350" y="480" font-family="Arial" font-size="14">8.7 MB</text>
  <text x="500" y="480" font-family="Arial" font-size="14">2025-04-16 14:45</text>
  <text x="650" y="480" font-family="Arial" font-size="14">PostgreSQL</text>
  
  <rect x="70" y="490" width="660" height="30" fill="white" stroke="#000" stroke-width="1"/>
  <text x="120" y="510" font-family="Arial" font-size="14">backups/elasticsearch/index1.dump</text>
  <text x="350" y="510" font-family="Arial" font-size="14">22.5 MB</text>
  <text x="500" y="510" font-family="Arial" font-size="14">2025-04-17 09:15</text>
  <text x="650" y="510" font-family="Arial" font-size="14">Elasticsearch</text>
  
  <!-- Help Text -->
  <rect x="50" y="560" width="700" height="30" fill="#F5F5F5" stroke="#000" stroke-width="1"/>
  <text x="400" y="580" font-family="Arial" font-size="14" text-anchor="middle">Tab: Navigate | ↑↓: Select | Enter: Edit/Confirm | q: Quit | r: Reload | t: Test Connection</text>
  
  <!-- Focus Indicators -->
  <rect x="50" y="100" width="230" height="250" fill="none" stroke="#FF0000" stroke-width="3" stroke-dasharray="5,5"/>
</svg>
